# xmcd
#
# Track frame offsets: 
#        150
#        12100
#        23453
#        36236
#        49325
#        60878
#        72245
#        82925
#        93832
#        106517
#        119108
#        132671
#        146059
#        157996
#        170290
#        182792
#        194181
#        201315
#        212176
#        222962
#        233860
#        249447
#        270973
#        282802
#        295126
#        305764
#        317536
#        330739
#        341014
#        356226
#        369678
#        381667
#
# Disc length: 5278 seconds
#
# Revision: 0
# Processed by: cddbd v1.5.2PL0 Copyright (c) Steve Scherf et al.
# Submitted via: ExactAudioCopyFreeDBPlugin 1.0
#
DISCID=f0149c20
DTITLE=Doctor Ross And His Jump And Jive Boys - Juke Box Boogie
DYEAR=2013
DGENRE=Blues
TTITLE0=Doctor Ross Boogie
TTITLE1=Country Clown
TTITLE2=Come Back baby
TTITLE3=Chicago Breakdown
TTITLE4=The Boogie Disease
TTITLE5=Juke Box Boogie
TTITLE6=Cat Squirrel (Mississippi Blues)
TTITLE7=Shake A-My Hand
TTITLE8=Little Soldier Boy
TTITLE9=Shake 'em On Down
TTITLE10=Polly Put The Kettle On
TTITLE11=Down South Blues
TTITLE12=My Be Bop Girl
TTITLE13=Texas Hop
TTITLE14=Deep Down In The Ground
TTITLE15=Turkey Bakin' Woman
TTITLE16=1953 Jump
TTITLE17=Doctor Ross Boogie
TTITLE18=Downtown Boogie
TTITLE19=Feel So Sad
TTITLE20=Going to The River
TTITLE21=Good Things Blues
TTITLE22=Industrial Boogie
TTITLE23=Thirty-Two Twenty
TTITLE24=Cat Squirrel (Mississippi Blues)
TTITLE25=The Sunnyland
TTITLE26=Cannonball
TTITLE27=Numbers Blues
TTITLE28=Call The Doctor
TTITLE29=New York Breakdown
TTITLE30=I'd Rather Be A Young Girl's Baby (Than An Old Girl's Slave)
TTITLE31=Sugar Mama
EXTD=
EXTT0=
EXTT1=
EXTT2=
EXTT3=
EXTT4=
EXTT5=
EXTT6=
EXTT7=
EXTT8=
EXTT9=
EXTT10=
EXTT11=
EXTT12=
EXTT13=
EXTT14=
EXTT15=
EXTT16=
EXTT17=
EXTT18=
EXTT19=
EXTT20=
EXTT21=
EXTT22=
EXTT23=
EXTT24=
EXTT25=
EXTT26=
EXTT27=
EXTT28=
EXTT29=
EXTT30=
EXTT31=
PLAYORDER=
